<?xml version="1.0" encoding="UTF-8" standalone="no"?>
<!DOCTYPE svg PUBLIC "-//W3C//DTD SVG 1.1//EN" "http://www.w3.org/Graphics/SVG/1.1/DTD/svg11.dtd">
<svg width="100%" height="100%" viewBox="0 0 32 32" version="1.1" xmlns="http://www.w3.org/2000/svg" xmlns:xlink="http://www.w3.org/1999/xlink" xml:space="preserve" xmlns:serif="http://www.serif.com/" style="fill-rule:evenodd;clip-rule:evenodd;stroke-linejoin:round;stroke-miterlimit:2;">
    <g transform="matrix(0.203364,0,0,0.203364,15.9242,15.5151)">
        <g id="T恤.svg" transform="matrix(1,0,0,1,-100,-100)">
            <path d="M146.547,53.799L173.97,75.173C174.564,75.636 174.743,76.466 174.392,77.133L162.277,100.176C162.007,100.689 161.473,101.011 160.894,101.011C160.639,101.011 160.388,100.949 160.163,100.829L146.547,93.622L146.547,53.799ZM52.868,53.799L26.012,75.171C25.427,75.636 25.254,76.46 25.602,77.121L37.723,100.175C37.992,100.688 38.526,101.01 39.106,101.01C39.361,101.01 39.613,100.947 39.838,100.828L53.906,93.365L52.868,53.799Z" style="fill:rgb(235,79,79);fill-rule:nonzero;"/>
            <path d="M81.611,42.578L52.868,53.799L51.974,155.839C51.974,155.846 51.974,155.852 51.974,155.859C51.974,157.145 53.032,158.203 54.317,158.203L145.669,158.203C146.955,158.203 148.013,157.145 148.013,155.859C148.013,155.848 148.013,155.837 148.013,155.826L146.547,53.799L118.045,42.578C111.844,43.845 105.729,44.479 99.699,44.479C93.669,44.479 87.64,43.845 81.611,42.578Z" style="fill:rgb(235,79,79);fill-rule:nonzero;"/>
            <path d="M72.833,123.352L72.839,123.813C72.844,139.372 90.743,123.813 90.743,142.407C90.743,158.498 64.865,161.288 52.031,149.147L52.352,112.675C61.331,109.608 72.531,112.104 72.833,123.351L72.833,123.352ZM81.641,42.584C87.659,43.848 93.679,44.479 99.699,44.479C105.729,44.479 111.844,43.845 118.045,42.578L117.969,42.594C117.961,52.51 109.831,60.547 99.805,60.547C89.773,60.547 81.641,52.502 81.641,42.578L81.641,42.584Z" style="fill:rgb(255,208,40);fill-rule:nonzero;"/>
            <path d="M100.781,132.746C100.781,139.615 119.866,139.615 122.55,145.338C125.232,151.061 141.946,142.88 135.736,135.947C129.526,129.014 100.781,125.876 100.781,132.746L100.781,132.746ZM75.781,74.543C75.781,81.412 56.696,81.412 54.013,87.135C51.33,92.857 34.616,84.677 40.826,77.744C47.037,70.811 75.781,67.673 75.781,74.543L75.781,74.543Z" style="fill:rgb(36,205,152);fill-rule:nonzero;"/>
            <path d="M130.989,100.205C140.042,80.763 153.545,97.186 158.649,81.626C163.752,66.065 141.706,84.232 133.665,75.44C125.624,66.649 113.043,68.69 113.038,84.25C113.033,99.808 87.384,92.17 87.382,100.219C87.379,108.268 121.936,119.646 130.989,100.205Z" style="fill:rgb(255,208,40);fill-rule:nonzero;"/>
        </g>
        <g id="T恤.svg1" serif:id="T恤.svg">
        </g>
    </g>
</svg>
